<svg xmlns="http://www.w3.org/2000/svg" xmlns:xlink="http://www.w3.org/1999/xlink" viewBox="0 0 234.058 17.001" overflow="visible"><path d="M 120.01 12.5 C 118.052 16.171 113.724 17.886 109.783 16.551 C 105.842 15.215 103.447 11.224 104.123 7.118 C 104.8 3.012 108.349 0 112.51 0 L 113.01 0 L 113.01 1 L 112.51 1 C 108.433 0.999 105.101 4.255 105.01 8.332 C 104.918 12.408 108.1 15.811 112.173 15.993 C 116.247 16.174 119.719 13.068 119.991 9 L 112.01 9 L 112.01 8 L 121.01 8 L 121.01 17 L 120.01 17 Z M 8.145 9.344 L 1 1.75 L 1 17.001 L 0 17.001 L 0 0 L 0.726 0 L 0.874 0.157 L 8.509 8.27 L 15.144 1.159 L 15.486 0.794 L 16.216 1.476 L 8.512 9.733 L 8.145 9.343 Z M 88.016 14.353 L 85.3 14.353 L 79.397 2.073 L 81.53 2.008 L 81.53 16.25 L 77.953 16.25 L 77.953 0.845 L 82.09 0.845 L 87.325 11.811 L 86.032 11.811 L 91.27 0.845 L 95.32 0.845 L 95.32 16.249 L 91.7 16.249 L 91.7 2.01 L 93.92 2.074 L 88.017 14.354 Z M 70.405 16.25 L 66.7 16.25 L 66.7 10.367 L 60.689 0.845 L 65.084 0.845 L 68.854 7.373 L 68.294 7.373 L 72.086 0.845 L 76.459 0.845 L 70.405 10.389 L 70.405 16.249 Z M 46.823 13.707 L 49.258 11.251 C 49.588 11.696 50.012 12.084 50.529 12.414 C 51.058 12.743 51.631 12.997 52.231 13.168 C 52.834 13.341 53.431 13.427 54.019 13.427 C 54.637 13.427 55.154 13.369 55.571 13.254 C 56.001 13.125 56.325 12.953 56.541 12.737 C 56.749 12.524 56.865 12.238 56.863 11.94 C 56.863 11.51 56.626 11.15 56.153 10.863 C 55.678 10.561 54.795 10.317 53.503 10.13 C 52.123 9.93 50.989 9.628 50.098 9.226 C 49.208 8.809 48.547 8.292 48.116 7.674 C 47.686 7.042 47.47 6.303 47.47 5.455 C 47.47 4.493 47.743 3.638 48.289 2.891 C 48.834 2.145 49.581 1.563 50.529 1.146 C 51.491 0.716 52.583 0.5 53.804 0.5 C 55.254 0.5 56.54 0.766 57.66 1.297 C 58.795 1.829 59.736 2.518 60.483 3.365 L 58.07 5.822 C 57.578 5.143 56.927 4.596 56.174 4.227 C 55.413 3.839 54.637 3.645 53.847 3.645 C 53.071 3.645 52.439 3.789 51.951 4.076 C 51.463 4.364 51.219 4.737 51.219 5.196 C 51.219 5.456 51.312 5.678 51.499 5.865 C 51.699 6.051 52.044 6.216 52.533 6.36 C 53.021 6.49 53.696 6.626 54.558 6.77 C 55.894 6.97 57.007 7.287 57.898 7.717 C 58.802 8.148 59.478 8.694 59.923 9.355 C 60.383 10.015 60.612 10.798 60.612 11.703 C 60.612 12.709 60.325 13.578 59.75 14.31 C 59.176 15.043 58.386 15.61 57.38 16.012 C 56.39 16.4 55.24 16.594 53.933 16.594 C 52.382 16.594 50.996 16.328 49.775 15.797 C 48.569 15.251 47.585 14.554 46.823 13.707 Z M 35.58 16.25 L 31.874 16.25 L 31.874 0.844 L 35.58 0.844 L 35.58 16.248 Z M 46.934 16.25 L 42.108 16.25 L 35.04 8.255 L 35.385 8.255 L 41.547 0.844 L 46.028 0.844 L 39.392 8.578 L 39.392 7.932 L 46.932 16.248 Z M 26.762 13.448 L 17.153 13.448 L 17.153 10.368 L 26.763 10.368 L 26.763 13.448 Z M 30.037 16.249 L 26.051 16.249 L 21.441 3.559 L 22.389 3.559 L 17.757 16.249 L 13.9 16.249 L 19.911 0.845 L 24.026 0.845 Z M 234.058 16.25 L 230.352 16.25 L 230.352 0.844 L 234.058 0.844 L 234.058 16.248 Z M 217.471 16.25 L 213.765 16.25 L 213.765 0.844 L 217.471 0.844 L 217.471 16.248 Z M 228.825 16.25 L 223.999 16.25 L 216.932 8.256 L 217.277 8.256 L 223.438 0.845 L 227.92 0.845 L 221.284 8.579 L 221.284 7.933 L 228.825 16.249 Z M 197.706 13.707 L 200.141 11.251 C 200.471 11.696 200.895 12.084 201.412 12.414 C 201.943 12.744 202.511 12.996 203.114 13.168 C 203.695 13.337 204.297 13.425 204.902 13.427 C 205.52 13.427 206.037 13.369 206.453 13.254 C 206.884 13.125 207.207 12.953 207.423 12.737 C 207.638 12.507 207.746 12.242 207.746 11.94 C 207.746 11.51 207.509 11.15 207.035 10.863 C 206.561 10.561 205.678 10.317 204.385 10.13 C 203.006 9.93 201.872 9.628 200.981 9.226 C 200.091 8.809 199.43 8.292 198.999 7.674 C 198.568 7.042 198.353 6.303 198.353 5.455 C 198.353 4.493 198.626 3.638 199.171 2.891 C 199.717 2.145 200.464 1.563 201.412 1.146 C 202.374 0.716 203.466 0.5 204.687 0.5 C 206.137 0.5 207.423 0.766 208.543 1.297 C 209.678 1.829 210.619 2.518 211.366 3.365 L 208.953 5.822 C 208.461 5.144 207.81 4.596 207.057 4.227 C 206.295 3.839 205.52 3.645 204.73 3.645 C 203.954 3.645 203.322 3.789 202.834 4.076 C 202.346 4.364 202.101 4.737 202.101 5.196 C 202.101 5.456 202.195 5.678 202.381 5.865 C 202.583 6.051 202.927 6.216 203.416 6.36 C 203.904 6.49 204.579 6.626 205.441 6.77 C 206.777 6.97 207.89 7.287 208.78 7.717 C 209.685 8.148 210.36 8.694 210.805 9.355 C 211.265 10.015 211.495 10.798 211.495 11.703 C 211.495 12.709 211.208 13.578 210.633 14.31 C 210.058 15.043 209.269 15.61 208.263 16.012 C 207.272 16.4 206.123 16.594 204.816 16.594 C 203.265 16.594 201.879 16.328 200.658 15.797 C 199.451 15.251 198.468 14.554 197.706 13.707 Z M 196.534 16.25 L 185.934 16.25 L 185.934 0.844 L 189.639 0.844 L 189.639 13.081 L 196.534 13.081 L 196.534 16.248 Z M 183.664 16.25 L 172.418 16.25 L 172.418 0.844 L 183.664 0.844 L 183.664 3.924 L 176.123 3.924 L 176.123 13.167 L 183.664 13.167 L 183.664 16.248 Z M 183.255 10.044 L 175.908 10.044 L 175.908 6.964 L 183.255 6.964 Z M 170.21 16.25 L 157.693 16.25 L 157.693 13.168 L 165.234 3.926 L 158.016 3.926 L 158.016 0.845 L 169.909 0.845 L 169.909 3.925 L 162.368 13.168 L 170.21 13.168 L 170.21 16.249 Z M 146.293 16.25 L 142.588 16.25 L 142.588 0.844 L 149.029 0.844 C 150.178 0.844 151.191 1.052 152.067 1.469 C 152.943 1.885 153.626 2.467 154.114 3.214 C 154.602 3.946 154.846 4.808 154.846 5.799 C 154.846 6.776 154.602 7.637 154.114 8.384 C 153.626 9.131 152.943 9.713 152.067 10.129 C 151.191 10.546 150.178 10.754 149.029 10.754 L 146.078 10.754 L 146.078 7.674 L 149.029 7.674 C 149.661 7.674 150.164 7.508 150.538 7.178 C 150.911 6.833 151.098 6.374 151.098 5.799 C 151.098 5.224 150.911 4.772 150.538 4.442 C 150.164 4.097 149.661 3.925 149.029 3.925 L 146.293 3.925 L 146.293 16.248 Z M 156.484 16.25 L 152.003 16.25 L 146.853 9.075 L 151.076 9.075 L 156.484 16.249 Z M 131.891 16.594 C 130.67 16.594 129.55 16.393 128.53 15.99 C 127.54 15.607 126.633 15.036 125.858 14.31 C 125.11 13.59 124.516 12.725 124.113 11.768 C 123.711 10.777 123.51 9.699 123.51 8.536 C 123.51 7.373 123.711 6.303 124.113 5.326 C 124.516 4.369 125.11 3.504 125.858 2.784 C 126.633 2.058 127.54 1.487 128.53 1.104 C 129.55 0.7 130.67 0.5 131.891 0.5 C 133.112 0.5 134.232 0.701 135.252 1.103 C 136.237 1.483 137.138 2.054 137.902 2.783 C 138.659 3.496 139.254 4.363 139.647 5.326 C 140.063 6.303 140.272 7.373 140.272 8.536 C 140.272 9.7 140.063 10.776 139.647 11.768 C 139.254 12.731 138.659 13.598 137.902 14.31 C 137.138 15.039 136.237 15.61 135.252 15.99 C 134.232 16.393 133.112 16.594 131.891 16.594 Z M 131.891 13.341 C 132.781 13.341 133.557 13.14 134.218 12.737 C 134.889 12.325 135.433 11.736 135.79 11.035 C 136.178 10.303 136.372 9.47 136.372 8.536 C 136.372 7.603 136.178 6.776 135.79 6.058 C 135.436 5.36 134.891 4.778 134.218 4.378 C 133.557 3.961 132.781 3.753 131.891 3.753 C 131.015 3.753 130.239 3.961 129.564 4.378 C 128.888 4.781 128.337 5.362 127.97 6.058 C 127.596 6.777 127.41 7.603 127.41 8.536 C 127.41 9.47 127.596 10.303 127.97 11.036 C 128.34 11.735 128.891 12.322 129.564 12.737 C 130.239 13.139 131.015 13.341 131.891 13.341 Z" fill="rgb(248,247,247)"></path></svg>