<svg xmlns="http://www.w3.org/2000/svg" xmlns:xlink="http://www.w3.org/1999/xlink" viewBox="0 0 34.01 17.001" overflow="visible"><path d="M 33.01 12.5 C 31.052 16.171 26.724 17.886 22.783 16.551 C 18.842 15.215 16.447 11.224 17.123 7.118 C 17.8 3.012 21.349 0 25.51 0 L 26.01 0 L 26.01 1 L 25.51 1 C 21.433 0.999 18.101 4.255 18.01 8.332 C 17.918 12.408 21.1 15.811 25.173 15.993 C 29.247 16.174 32.719 13.068 32.991 9 L 25.01 9 L 25.01 8 L 34.01 8 L 34.01 17 L 33.01 17 Z M 8.145 9.344 L 1 1.75 L 1 17.001 L 0 17.001 L 0 0 L 0.726 0 L 0.874 0.157 L 8.509 8.27 L 15.144 1.159 L 15.486 0.794 L 16.216 1.476 L 8.512 9.733 L 8.145 9.343 Z" fill="rgb(248,247,247)"></path></svg>